<svg id="Layer_1" data-name="Layer 1" xmlns="http://www.w3.org/2000/svg" viewBox="0 0 18 14.03"><defs><style>.cls-1{fill:#fff;}</style></defs><title>chat</title><path class="cls-1" d="M1,9.87a1.36,1.36,0,0,0,1.36,1.36h2v2.1a.68.68,0,0,0,.68.68.72.72,0,0,0,.49-.2l2.57-2.58h7.48A1.36,1.36,0,0,0,17,9.87V1.37A1.36,1.36,0,0,0,15.63,0H2.37A1.36,1.36,0,0,0,1,1.37v8.5ZM5.09,6a.85.85,0,1,1,.85.85A.85.85,0,0,1,5.09,6ZM8.15,6A.85.85,0,1,1,9,6.81.85.85,0,0,1,8.15,6Zm3.06,0a.85.85,0,1,1,.85.85A.85.85,0,0,1,11.21,6Z"/></svg>